<?xml version="1.0" encoding="UTF-8" standalone="no"?>
<svg width="231.775mm" height="143.14mm"
 xmlns="http://www.w3.org/2000/svg" xmlns:xlink="http://www.w3.org/1999/xlink"  version="1.2" baseProfile="tiny">
<title>artist name cloud</title>
<desc>Rendered by Tableau</desc>
<defs>
</defs>
<g fill="none" stroke="black" stroke-width="1" fill-rule="evenodd" stroke-linecap="square" stroke-linejoin="bevel" >

<g >
<g fill="#ffffff" fill-opacity="1" stroke="none" transform="matrix(1,0,0,1,0,0)"
font-family="Benton Sans Book" font-size="16" font-weight="400" font-style="normal" 
>
<rect x="0" y="0" width="876" height="541"/>
</g>
</g>

<g >
<g fill="#ffffff" fill-opacity="1" stroke="none" transform="matrix(1,0,0,1,0,0)"
font-family="Benton Sans Book" font-size="16" font-weight="400" font-style="normal" 
>
<rect x="0" y="0" width="876" height="541"/>
</g>
</g>

<clipPath id ="clip1" >
<rect x="0" y="0" height="542" width="877" transform="matrix(1,0,0,1,0,0)" />
</clipPath>
<g  clip-path="url(#clip1)" 
>
<g fill="none" stroke="#000000" stroke-opacity="1" stroke-width="1" stroke-linecap="square" stroke-linejoin="bevel" transform="matrix(1,0,0,1,0,0)"
font-family="Benton Sans Book" font-size="16" font-weight="400" font-style="normal" 
>
</g>
</g>

<clipPath id ="clip2" >
<rect x="0" y="0" height="542" width="877" transform="matrix(1,0,0,1,0,0)" />
</clipPath>
<g  clip-path="url(#clip2)" 
>
<g fill="none" stroke="#000000" stroke-opacity="1" stroke-width="1" stroke-linecap="square" stroke-linejoin="bevel" transform="matrix(1,0,0,1,0,0)"
font-family="Benton Sans Book" font-size="16" font-weight="400" font-style="normal" 
>
</g>
</g>

<g  clip-path="url(#clip2)" 
>
<g fill="#ffffff" fill-opacity="1" stroke="none" transform="matrix(1,0,0,1,0,0)"
font-family="Benton Sans Book" font-size="16" font-weight="400" font-style="normal" 
>
<rect x="0" y="0" width="877" height="542"/>
</g>
</g>

<g  clip-path="url(#clip2)" 
>
<g fill="#ffffff" fill-opacity="1" stroke="none" transform="matrix(1,0,0,1,0,0)"
font-family="Benton Sans Book" font-size="16" font-weight="400" font-style="normal" 
>
<rect x="0" y="0" width="877" height="542"/>
</g>
</g>

<clipPath id ="clip3" >
<rect x="0" y="0" height="541" width="876" transform="matrix(1,0,0,1,0,0)" />
</clipPath>
<g  clip-path="url(#clip3)" 
>
<g fill="none" stroke="#000000" stroke-opacity="1" stroke-width="1" stroke-linecap="square" stroke-linejoin="bevel" transform="matrix(1,0,0,1,0,0)"
font-family="Benton Sans Book" font-size="16" font-weight="400" font-style="normal" 
>
</g>
</g>

<g  clip-path="url(#clip3)" 
>
<g fill="#ffffff" fill-opacity="1" stroke="none" transform="matrix(1,0,0,1,0,0)"
font-family="Benton Sans Book" font-size="16" font-weight="400" font-style="normal" 
>
<rect x="0" y="0" width="877" height="542"/>
</g>
</g>

<clipPath id ="clip4" >
<rect x="0" y="0" height="542" width="877" transform="matrix(1,0,0,1,0,0)" />
</clipPath>
<g  clip-path="url(#clip4)" 
>
<g fill="none" stroke="#000000" stroke-opacity="1" stroke-width="1" stroke-linecap="square" stroke-linejoin="bevel" transform="matrix(1,0,0,1,0,0)"
font-family="Benton Sans Book" font-size="16" font-weight="400" font-style="normal" 
>
</g>
</g>

<clipPath id ="clip5" >
<rect x="0" y="0" height="542" width="877" transform="matrix(1,0,0,1,0,0)" />
</clipPath>
<g  clip-path="url(#clip5)" 
>
<g fill="none" stroke="#000000" stroke-opacity="1" stroke-width="1" stroke-linecap="square" stroke-linejoin="bevel" transform="matrix(1,0,0,1,0,0)"
font-family="Benton Sans Book" font-size="16" font-weight="400" font-style="normal" 
>
</g>
</g>

<clipPath id ="clip6" >
<rect x="0" y="0" height="542" width="877" transform="matrix(1,0,0,1,0,0)" />
</clipPath>
<g  clip-path="url(#clip6)" 
>
<g fill="none" stroke="#000000" stroke-opacity="1" stroke-width="1" stroke-linecap="square" stroke-linejoin="bevel" transform="matrix(1,0,0,1,0,0)"
font-family="Benton Sans Book" font-size="16" font-weight="400" font-style="normal" 
>
</g>
</g>

<clipPath id ="clip7" >
<rect x="0" y="0" height="542" width="877" transform="matrix(1,0,0,1,0,0)" />
</clipPath>
<g  clip-path="url(#clip7)" 
>
<g fill="none" stroke="#000000" stroke-opacity="1" stroke-width="1" stroke-linecap="square" stroke-linejoin="bevel" transform="matrix(1,0,0,1,0,0)"
font-family="Benton Sans Book" font-size="16" font-weight="400" font-style="normal" 
>
</g>
</g>

<g  clip-path="url(#clip7)" 
>
<g fill="#ffffff" fill-opacity="1" stroke="none" transform="matrix(1,0,0,1,0,0)"
font-family="Benton Sans Book" font-size="16" font-weight="400" font-style="normal" 
>
<rect x="0" y="0" width="877" height="542"/>
</g>
</g>

<clipPath id ="clip8" >
<rect x="0" y="0" height="542" width="877" transform="matrix(1,0,0,1,0,0)" />
</clipPath>
<g  clip-path="url(#clip8)" 
>
<g fill="none" stroke="#000000" stroke-opacity="1" stroke-width="1" stroke-linecap="square" stroke-linejoin="bevel" transform="matrix(1,0,0,1,0,0)"
font-family="Benton Sans Book" font-size="16" font-weight="400" font-style="normal" 
>
</g>
</g>

<clipPath id ="clip9" >
<rect x="0" y="0" height="541" width="876" transform="matrix(1,0,0,1,0,0)" />
</clipPath>
<g  clip-path="url(#clip9)" 
>
<g fill="none" stroke="#000000" stroke-opacity="1" stroke-width="1" stroke-linecap="square" stroke-linejoin="bevel" transform="matrix(1,0,0,1,0,0)"
font-family="Benton Sans Book" font-size="16" font-weight="400" font-style="normal" 
>
</g>
</g>

<clipPath id ="clip10" >
<rect x="0" y="0" height="542" width="877" transform="matrix(1,0,0,1,0,0)" />
</clipPath>
<g  clip-path="url(#clip10)" 
>
<g fill="none" stroke="#000000" stroke-opacity="1" stroke-width="1" stroke-linecap="square" stroke-linejoin="bevel" transform="matrix(1,0,0,1,0,0)"
font-family="Benton Sans Book" font-size="16" font-weight="400" font-style="normal" 
>
</g>
</g>

<clipPath id ="clip11" >
<rect x="0" y="0" height="542" width="877" transform="matrix(1,0,0,1,0,0)" />
</clipPath>
<g  clip-path="url(#clip11)" 
>
<g fill="none" stroke="#000000" stroke-opacity="1" stroke-width="1" stroke-linecap="square" stroke-linejoin="bevel" transform="matrix(1,0,0,1,0,0)"
font-family="Benton Sans Book" font-size="16" font-weight="400" font-style="normal" 
>
</g>
</g>

<clipPath id ="clip12" >
<rect x="0" y="0" height="541" width="876" transform="matrix(1,0,0,1,0,0)" />
</clipPath>
<g  clip-path="url(#clip12)" 
>
<g fill="none" stroke="#000000" stroke-opacity="1" stroke-width="1" stroke-linecap="square" stroke-linejoin="bevel" transform="matrix(1,0,0,1,0,0)"
font-family="Benton Sans Book" font-size="16" font-weight="400" font-style="normal" 
>
</g>
</g>

<g  clip-path="url(#clip12)" 
>
<g fill="none" stroke="#4f7cba" stroke-opacity="1" stroke-width="1" stroke-linecap="square" stroke-linejoin="bevel" transform="matrix(1,0,0,1,0,0)"
font-family="Helvetica Neue" font-size="25" font-weight="700" font-style="normal" 
>
<text fill="#4f7cba" fill-opacity="1" stroke="none" xml:space="preserve" x="135" y="158" font-family="Helvetica Neue" font-size="25" font-weight="700" font-style="normal" 
 >Tones And I</text>
</g>
</g>

<g  clip-path="url(#clip12)" 
>
<g fill="none" stroke="#6278bc" stroke-opacity="1" stroke-width="1" stroke-linecap="square" stroke-linejoin="bevel" transform="matrix(1,0,0,1,0,0)"
font-family="Helvetica Neue" font-size="19" font-weight="700" font-style="normal" 
>
<text fill="#6278bc" fill-opacity="1" stroke="none" xml:space="preserve" x="230" y="126" font-family="Helvetica Neue" font-size="19" font-weight="700" font-style="normal" 
 >The Weeknd, Daft Punk</text>
</g>
</g>

<g  clip-path="url(#clip12)" 
>
<g fill="none" stroke="#7574bf" stroke-opacity="1" stroke-width="1" stroke-linecap="square" stroke-linejoin="bevel" transform="matrix(1,0,0,1,0,0)"
font-family="Helvetica Neue" font-size="28" font-weight="700" font-style="normal" 
>
<text fill="#7574bf" fill-opacity="1" stroke="none" xml:space="preserve" x="331" y="183" font-family="Helvetica Neue" font-size="28" font-weight="700" font-style="normal" 
 >The Weeknd</text>
</g>
</g>

<g  clip-path="url(#clip12)" 
>
<g fill="none" stroke="#8870c2" stroke-opacity="1" stroke-width="1" stroke-linecap="square" stroke-linejoin="bevel" transform="matrix(1,0,0,1,0,0)"
font-family="Helvetica Neue" font-size="23" font-weight="700" font-style="normal" 
>
<text fill="#8870c2" fill-opacity="1" stroke="none" xml:space="preserve" x="405" y="236" font-family="Helvetica Neue" font-size="23" font-weight="700" font-style="normal" 
 >The Kid LAROI, Justin Bieber</text>
</g>
</g>

<g  clip-path="url(#clip12)" 
>
<g fill="none" stroke="#9b6dc2" stroke-opacity="1" stroke-width="1" stroke-linecap="square" stroke-linejoin="bevel" transform="matrix(1,0,0,1,0,0)"
font-family="Helvetica Neue" font-size="21" font-weight="700" font-style="normal" 
>
<text fill="#9b6dc2" fill-opacity="1" stroke="none" xml:space="preserve" x="593" y="335" font-family="Helvetica Neue" font-size="21" font-weight="700" font-style="normal" 
 >The Chainsmokers, Halsey</text>
</g>
</g>

<g  clip-path="url(#clip12)" 
>
<g fill="none" stroke="#b06cc1" stroke-opacity="1" stroke-width="1" stroke-linecap="square" stroke-linejoin="bevel" transform="matrix(1,0,0,1,0,0)"
font-family="Helvetica Neue" font-size="19" font-weight="700" font-style="normal" 
>
<text fill="#b06cc1" fill-opacity="1" stroke="none" xml:space="preserve" x="170" y="209" font-family="Helvetica Neue" font-size="19" font-weight="700" font-style="normal" 
 >The Chainsmokers, Coldplay</text>
</g>
</g>

<g  clip-path="url(#clip12)" 
>
<g fill="none" stroke="#c46abf" stroke-opacity="1" stroke-width="1" stroke-linecap="square" stroke-linejoin="bevel" transform="matrix(1,0,0,1,0,0)"
font-family="Helvetica Neue" font-size="23" font-weight="700" font-style="normal" 
>
<text fill="#c46abf" fill-opacity="1" stroke="none" xml:space="preserve" x="528" y="278" font-family="Helvetica Neue" font-size="23" font-weight="700" font-style="normal" 
 >Shawn Mendes, Camila Cabello</text>
</g>
</g>

<g  clip-path="url(#clip12)" 
>
<g fill="none" stroke="#d769bd" stroke-opacity="1" stroke-width="1" stroke-linecap="square" stroke-linejoin="bevel" transform="matrix(1,0,0,1,0,0)"
font-family="Helvetica Neue" font-size="19" font-weight="700" font-style="normal" 
>
<text fill="#d769bd" fill-opacity="1" stroke="none" xml:space="preserve" x="326" y="438" font-family="Helvetica Neue" font-size="19" font-weight="700" font-style="normal" 
 >SAINt JHN, Imanbek</text>
</g>
</g>

<g  clip-path="url(#clip12)" 
>
<g fill="none" stroke="#e36fb7" stroke-opacity="1" stroke-width="1" stroke-linecap="square" stroke-linejoin="bevel" transform="matrix(1,0,0,1,0,0)"
font-family="Helvetica Neue" font-size="19" font-weight="700" font-style="normal" 
>
<text fill="#e36fb7" fill-opacity="1" stroke="none" xml:space="preserve" x="45" y="308" font-family="Helvetica Neue" font-size="19" font-weight="700" font-style="normal" 
 >Roddy Ricch</text>
</g>
</g>

<g  clip-path="url(#clip12)" 
>
<g fill="none" stroke="#ef75b1" stroke-opacity="1" stroke-width="1" stroke-linecap="square" stroke-linejoin="bevel" transform="matrix(1,0,0,1,0,0)"
font-family="Helvetica Neue" font-size="20" font-weight="700" font-style="normal" 
>
<text fill="#ef75b1" fill-opacity="1" stroke="none" xml:space="preserve" x="639" y="397" font-family="Helvetica Neue" font-size="20" font-weight="700" font-style="normal" 
 >Queen</text>
</g>
</g>

<g  clip-path="url(#clip12)" 
>
<g fill="none" stroke="#fb7aab" stroke-opacity="1" stroke-width="1" stroke-linecap="square" stroke-linejoin="bevel" transform="matrix(1,0,0,1,0,0)"
font-family="Helvetica Neue" font-size="24" font-weight="700" font-style="normal" 
>
<text fill="#fb7aab" fill-opacity="1" stroke="none" xml:space="preserve" x="562" y="308" font-family="Helvetica Neue" font-size="24" font-weight="700" font-style="normal" 
 >Post Malone, Swae Lee</text>
</g>
</g>

<g  clip-path="url(#clip12)" 
>
<g fill="none" stroke="#fb6d9a" stroke-opacity="1" stroke-width="1" stroke-linecap="square" stroke-linejoin="bevel" transform="matrix(1,0,0,1,0,0)"
font-family="Helvetica Neue" font-size="23" font-weight="700" font-style="normal" 
>
<text fill="#fb6d9a" fill-opacity="1" stroke="none" xml:space="preserve" x="82" y="236" font-family="Helvetica Neue" font-size="23" font-weight="700" font-style="normal" 
 >Post Malone, 21 Savage</text>
</g>
</g>

<g  clip-path="url(#clip12)" 
>
<g fill="none" stroke="#f85b85" stroke-opacity="1" stroke-width="1" stroke-linecap="square" stroke-linejoin="bevel" transform="matrix(1,0,0,1,0,0)"
font-family="Helvetica Neue" font-size="21" font-weight="700" font-style="normal" 
>
<text fill="#f85b85" fill-opacity="1" stroke="none" xml:space="preserve" x="689" y="175" font-family="Helvetica Neue" font-size="21" font-weight="700" font-style="normal" 
 >Post Malone</text>
</g>
</g>

<g  clip-path="url(#clip12)" 
>
<g fill="none" stroke="#f54870" stroke-opacity="1" stroke-width="1" stroke-linecap="square" stroke-linejoin="bevel" transform="matrix(1,0,0,1,0,0)"
font-family="Helvetica Neue" font-size="19" font-weight="700" font-style="normal" 
>
<text fill="#f54870" fill-opacity="1" stroke="none" xml:space="preserve" x="338" y="102" font-family="Helvetica Neue" font-size="19" font-weight="700" font-style="normal" 
 >Marshmello, Bastille</text>
</g>
</g>

<g  clip-path="url(#clip12)" 
>
<g fill="none" stroke="#f13a5d" stroke-opacity="1" stroke-width="1" stroke-linecap="square" stroke-linejoin="bevel" transform="matrix(1,0,0,1,0,0)"
font-family="Helvetica Neue" font-size="19" font-weight="700" font-style="normal" 
>
<text fill="#f13a5d" fill-opacity="1" stroke="none" xml:space="preserve" x="79" y="209" font-family="Helvetica Neue" font-size="19" font-weight="700" font-style="normal" 
 >Maroon 5</text>
</g>
</g>

<g  clip-path="url(#clip12)" 
>
<g fill="none" stroke="#eb374b" stroke-opacity="1" stroke-width="1" stroke-linecap="square" stroke-linejoin="bevel" transform="matrix(1,0,0,1,0,0)"
font-family="Helvetica Neue" font-size="20" font-weight="700" font-style="normal" 
>
<text fill="#eb374b" fill-opacity="1" stroke="none" xml:space="preserve" x="278" y="151" font-family="Helvetica Neue" font-size="20" font-weight="700" font-style="normal" 
 >Lil Nas X, Jack Harlow</text>
</g>
</g>

<g  clip-path="url(#clip12)" 
>
<g fill="none" stroke="#e5333a" stroke-opacity="1" stroke-width="1" stroke-linecap="square" stroke-linejoin="bevel" transform="matrix(1,0,0,1,0,0)"
font-family="Helvetica Neue" font-size="20" font-weight="700" font-style="normal" 
>
<text fill="#e5333a" fill-opacity="1" stroke="none" xml:space="preserve" x="715" y="394" font-family="Helvetica Neue" font-size="20" font-weight="700" font-style="normal" 
 >Lil Nas X</text>
</g>
</g>

<g  clip-path="url(#clip12)" 
>
<g fill="none" stroke="#df3029" stroke-opacity="1" stroke-width="1" stroke-linecap="square" stroke-linejoin="bevel" transform="matrix(1,0,0,1,0,0)"
font-family="Helvetica Neue" font-size="25" font-weight="700" font-style="normal" 
>
<text fill="#df3029" fill-opacity="1" stroke="none" xml:space="preserve" x="648" y="368" font-family="Helvetica Neue" font-size="25" font-weight="700" font-style="normal" 
 >Lewis Capaldi</text>
</g>
</g>

<g  clip-path="url(#clip12)" 
>
<g fill="none" stroke="#e54522" stroke-opacity="1" stroke-width="1" stroke-linecap="square" stroke-linejoin="bevel" transform="matrix(1,0,0,1,0,0)"
font-family="Helvetica Neue" font-size="21" font-weight="700" font-style="normal" 
>
<text fill="#e54522" fill-opacity="1" stroke="none" xml:space="preserve" x="165" y="319" font-family="Helvetica Neue" font-size="21" font-weight="700" font-style="normal" 
 >Lady Gaga, Bradley Cooper</text>
</g>
</g>

<g  clip-path="url(#clip12)" 
>
<g fill="none" stroke="#ed5d1c" stroke-opacity="1" stroke-width="1" stroke-linecap="square" stroke-linejoin="bevel" transform="matrix(1,0,0,1,0,0)"
font-family="Helvetica Neue" font-size="21" font-weight="700" font-style="normal" 
>
<text fill="#ed5d1c" fill-opacity="1" stroke="none" xml:space="preserve" x="277" y="464" font-family="Helvetica Neue" font-size="21" font-weight="700" font-style="normal" 
 >Juice WRLD</text>
</g>
</g>

<g  clip-path="url(#clip12)" 
>
<g fill="none" stroke="#f47516" stroke-opacity="1" stroke-width="1" stroke-linecap="square" stroke-linejoin="bevel" transform="matrix(1,0,0,1,0,0)"
font-family="Helvetica Neue" font-size="19" font-weight="700" font-style="normal" 
>
<text fill="#f47516" fill-opacity="1" stroke="none" xml:space="preserve" x="402" y="463" font-family="Helvetica Neue" font-size="19" font-weight="700" font-style="normal" 
 >John Legend</text>
</g>
</g>

<g  clip-path="url(#clip12)" 
>
<g fill="none" stroke="#f88915" stroke-opacity="1" stroke-width="1" stroke-linecap="square" stroke-linejoin="bevel" transform="matrix(1,0,0,1,0,0)"
font-family="Helvetica Neue" font-size="23" font-weight="700" font-style="normal" 
>
<text fill="#f88915" fill-opacity="1" stroke="none" xml:space="preserve" x="725" y="248" font-family="Helvetica Neue" font-size="23" font-weight="700" font-style="normal" 
 >James Arthur</text>
</g>
</g>

<g  clip-path="url(#clip12)" 
>
<g fill="none" stroke="#f89919" stroke-opacity="1" stroke-width="1" stroke-linecap="square" stroke-linejoin="bevel" transform="matrix(1,0,0,1,0,0)"
font-family="Helvetica Neue" font-size="24" font-weight="700" font-style="normal" 
>
<text fill="#f89919" fill-opacity="1" stroke="none" xml:space="preserve" x="102" y="386" font-family="Helvetica Neue" font-size="24" font-weight="700" font-style="normal" 
 >Imagine Dragons</text>
</g>
</g>

<g  clip-path="url(#clip12)" 
>
<g fill="none" stroke="#f8a91d" stroke-opacity="1" stroke-width="1" stroke-linecap="square" stroke-linejoin="bevel" transform="matrix(1,0,0,1,0,0)"
font-family="Helvetica Neue" font-size="23" font-weight="700" font-style="normal" 
>
<text fill="#f8a91d" fill-opacity="1" stroke="none" xml:space="preserve" x="518" y="184" font-family="Helvetica Neue" font-size="23" font-weight="700" font-style="normal" 
 >Glass Animals</text>
</g>
</g>

<g  clip-path="url(#clip12)" 
>
<g fill="none" stroke="#f6b921" stroke-opacity="1" stroke-width="1" stroke-linecap="square" stroke-linejoin="bevel" transform="matrix(1,0,0,1,0,0)"
font-family="Helvetica Neue" font-size="19" font-weight="700" font-style="normal" 
>
<text fill="#f6b921" fill-opacity="1" stroke="none" xml:space="preserve" x="454" y="209" font-family="Helvetica Neue" font-size="19" font-weight="700" font-style="normal" 
 >Ed Sheeran, Justin Bieber</text>
</g>
</g>

<g  clip-path="url(#clip12)" 
>
<g fill="none" stroke="#e4ba21" stroke-opacity="1" stroke-width="1" stroke-linecap="square" stroke-linejoin="bevel" transform="matrix(1,0,0,1,0,0)"
font-family="Helvetica Neue" font-size="20" font-weight="700" font-style="normal" 
>
<text fill="#e4ba21" fill-opacity="1" stroke="none" xml:space="preserve" x="76" y="412" font-family="Helvetica Neue" font-size="20" font-weight="700" font-style="normal" 
 >Dua Lipa, DaBaby</text>
</g>
</g>

<g  clip-path="url(#clip12)" 
>
<g fill="none" stroke="#d3bb21" stroke-opacity="1" stroke-width="1" stroke-linecap="square" stroke-linejoin="bevel" transform="matrix(1,0,0,1,0,0)"
font-family="Helvetica Neue" font-size="23" font-weight="700" font-style="normal" 
>
<text fill="#d3bb21" fill-opacity="1" stroke="none" xml:space="preserve" x="506" y="155" font-family="Helvetica Neue" font-size="23" font-weight="700" font-style="normal" 
 >Dua Lipa</text>
</g>
</g>

<g  clip-path="url(#clip12)" 
>
<g fill="none" stroke="#c1bc21" stroke-opacity="1" stroke-width="1" stroke-linecap="square" stroke-linejoin="bevel" transform="matrix(1,0,0,1,0,0)"
font-family="Helvetica Neue" font-size="21" font-weight="700" font-style="normal" 
>
<text fill="#c1bc21" fill-opacity="1" stroke="none" xml:space="preserve" x="454" y="362" font-family="Helvetica Neue" font-size="21" font-weight="700" font-style="normal" 
 >Drake, Wizkid, Kyla</text>
</g>
</g>

<g  clip-path="url(#clip12)" 
>
<g fill="none" stroke="#a4b726" stroke-opacity="1" stroke-width="1" stroke-linecap="square" stroke-linejoin="bevel" transform="matrix(1,0,0,1,0,0)"
font-family="Helvetica Neue" font-size="20" font-weight="700" font-style="normal" 
>
<text fill="#a4b726" fill-opacity="1" stroke="none" xml:space="preserve" x="656" y="150" font-family="Helvetica Neue" font-size="20" font-weight="700" font-style="normal" 
 >Drake</text>
</g>
</g>

<g  clip-path="url(#clip12)" 
>
<g fill="none" stroke="#81ae2e" stroke-opacity="1" stroke-width="1" stroke-linecap="square" stroke-linejoin="bevel" transform="matrix(1,0,0,1,0,0)"
font-family="Helvetica Neue" font-size="19" font-weight="700" font-style="normal" 
>
<text fill="#81ae2e" fill-opacity="1" stroke="none" xml:space="preserve" x="443" y="126" font-family="Helvetica Neue" font-size="19" font-weight="700" font-style="normal" 
 >Doja Cat, SZA</text>
</g>
</g>

<g  clip-path="url(#clip12)" 
>
<g fill="none" stroke="#5fa535" stroke-opacity="1" stroke-width="1" stroke-linecap="square" stroke-linejoin="bevel" transform="matrix(1,0,0,1,0,0)"
font-family="Helvetica Neue" font-size="19" font-weight="700" font-style="normal" 
>
<text fill="#5fa535" fill-opacity="1" stroke="none" xml:space="preserve" x="70" y="186" font-family="Helvetica Neue" font-size="19" font-weight="700" font-style="normal" 
 >Camila Cabello, Young Thug</text>
</g>
</g>

<g  clip-path="url(#clip12)" 
>
<g fill="none" stroke="#42a040" stroke-opacity="1" stroke-width="1" stroke-linecap="square" stroke-linejoin="bevel" transform="matrix(1,0,0,1,0,0)"
font-family="Helvetica Neue" font-size="19" font-weight="700" font-style="normal" 
>
<text fill="#42a040" fill-opacity="1" stroke="none" xml:space="preserve" x="615" y="156" font-family="Helvetica Neue" font-size="19" font-weight="700" font-style="normal" 
 >BTS</text>
</g>
</g>

<g  clip-path="url(#clip12)" 
>
<g fill="none" stroke="#37a454" stroke-opacity="1" stroke-width="1" stroke-linecap="square" stroke-linejoin="bevel" transform="matrix(1,0,0,1,0,0)"
font-family="Helvetica Neue" font-size="23" font-weight="700" font-style="normal" 
>
<text fill="#37a454" fill-opacity="1" stroke="none" xml:space="preserve" x="300" y="390" font-family="Helvetica Neue" font-size="23" font-weight="700" font-style="normal" 
 >Billie Eilish, Khalid</text>
</g>
</g>

<g  clip-path="url(#clip12)" 
>
<g fill="none" stroke="#2ba869" stroke-opacity="1" stroke-width="1" stroke-linecap="square" stroke-linejoin="bevel" transform="matrix(1,0,0,1,0,0)"
font-family="Helvetica Neue" font-size="23" font-weight="700" font-style="normal" 
>
<text fill="#2ba869" fill-opacity="1" stroke="none" xml:space="preserve" x="442" y="326" font-family="Helvetica Neue" font-size="23" font-weight="700" font-style="normal" 
 >Billie Eilish</text>
</g>
</g>

<g  clip-path="url(#clip12)" 
>
<g fill="none" stroke="#20ad7d" stroke-opacity="1" stroke-width="1" stroke-linecap="square" stroke-linejoin="bevel" transform="matrix(1,0,0,1,0,0)"
font-family="Helvetica Neue" font-size="19" font-weight="700" font-style="normal" 
>
<text fill="#20ad7d" fill-opacity="1" stroke="none" xml:space="preserve" x="250" y="414" font-family="Helvetica Neue" font-size="19" font-weight="700" font-style="normal" 
 >Bad Bunny, Jhay Cortez</text>
</g>
</g>

<g  clip-path="url(#clip12)" 
>
<g fill="none" stroke="#24b28f" stroke-opacity="1" stroke-width="1" stroke-linecap="square" stroke-linejoin="bevel" transform="matrix(1,0,0,1,0,0)"
font-family="Helvetica Neue" font-size="20" font-weight="700" font-style="normal" 
>
<text fill="#24b28f" fill-opacity="1" stroke="none" xml:space="preserve" x="501" y="387" font-family="Helvetica Neue" font-size="20" font-weight="700" font-style="normal" 
 >Ariana Grande</text>
</g>
</g>

<g  clip-path="url(#clip12)" 
>
<g fill="none" stroke="#2bb8a1" stroke-opacity="1" stroke-width="1" stroke-linecap="square" stroke-linejoin="bevel" transform="matrix(1,0,0,1,0,0)"
font-family="Helvetica Neue" font-size="19" font-weight="700" font-style="normal" 
>
<text fill="#2bb8a1" fill-opacity="1" stroke="none" xml:space="preserve" x="52" y="128" font-family="Helvetica Neue" font-size="19" font-weight="700" font-style="normal" 
 >24kGoldn, iann dior</text>
</g>
</g>

<g  clip-path="url(#clip12)" 
>
<g fill="none" stroke="#32bdb2" stroke-opacity="1" stroke-width="1" stroke-linecap="square" stroke-linejoin="bevel" transform="matrix(1,0,0,1,0,0)"
font-family="Helvetica Neue" font-size="28" font-weight="700" font-style="normal" 
>
<text fill="#32bdb2" fill-opacity="1" stroke="none" xml:space="preserve" x="0" y="280" font-family="Helvetica Neue" font-size="28" font-weight="700" font-style="normal" 
 >XXXTENTACION</text>
</g>
</g>

<g  clip-path="url(#clip12)" 
>
<g fill="none" stroke="#33bdbe" stroke-opacity="1" stroke-width="1" stroke-linecap="square" stroke-linejoin="bevel" transform="matrix(1,0,0,1,0,0)"
font-family="Helvetica Neue" font-size="27" font-weight="700" font-style="normal" 
>
<text fill="#33bdbe" fill-opacity="1" stroke="none" xml:space="preserve" x="701" y="207" font-family="Helvetica Neue" font-size="27" font-weight="700" font-style="normal" 
 >Travis Scott</text>
</g>
</g>

<g  clip-path="url(#clip12)" 
>
<g fill="none" stroke="#2bb4c0" stroke-opacity="1" stroke-width="1" stroke-linecap="square" stroke-linejoin="bevel" transform="matrix(1,0,0,1,0,0)"
font-family="Helvetica Neue" font-size="28" font-weight="700" font-style="normal" 
>
<text fill="#2bb4c0" fill-opacity="1" stroke="none" xml:space="preserve" x="84" y="353" font-family="Helvetica Neue" font-size="28" font-weight="700" font-style="normal" 
 >Olivia Rodrigo</text>
</g>
</g>

<g  clip-path="url(#clip12)" 
>
<g fill="none" stroke="#23abc3" stroke-opacity="1" stroke-width="1" stroke-linecap="square" stroke-linejoin="bevel" transform="matrix(1,0,0,1,0,0)"
font-family="Helvetica Neue" font-size="29" font-weight="700" font-style="normal" 
>
<text fill="#23abc3" fill-opacity="1" stroke="none" xml:space="preserve" x="274" y="355" font-family="Helvetica Neue" font-size="29" font-weight="700" font-style="normal" 
 >Harry Styles</text>
</g>
</g>

<g  clip-path="url(#clip12)" 
>
<g fill="none" stroke="#1ba3c6" stroke-opacity="1" stroke-width="1" stroke-linecap="square" stroke-linejoin="bevel" transform="matrix(1,0,0,1,0,0)"
font-family="Helvetica Neue" font-size="47" font-weight="700" font-style="normal" 
>
<text fill="#1ba3c6" fill-opacity="1" stroke="none" xml:space="preserve" x="257" y="288" font-family="Helvetica Neue" font-size="47" font-weight="700" font-style="normal" 
 >Ed Sheeran</text>
</g>
</g>

<clipPath id ="clip13" >
<rect x="0" y="0" height="542" width="877" transform="matrix(1,0,0,1,0,0)" />
</clipPath>
<g  clip-path="url(#clip13)" 
>
<g fill="none" stroke="#1ba3c6" stroke-opacity="1" stroke-width="1" stroke-linecap="square" stroke-linejoin="bevel" transform="matrix(1,0,0,1,0,0)"
font-family="Helvetica Neue" font-size="47" font-weight="700" font-style="normal" 
>
</g>
</g>

<clipPath id ="clip14" >
<rect x="0" y="0" height="542" width="877" transform="matrix(1,0,0,1,0,0)" />
</clipPath>
<g  clip-path="url(#clip14)" 
>
<g fill="none" stroke="#1ba3c6" stroke-opacity="1" stroke-width="1" stroke-linecap="square" stroke-linejoin="bevel" transform="matrix(1,0,0,1,0,0)"
font-family="Helvetica Neue" font-size="47" font-weight="700" font-style="normal" 
>
</g>
</g>

<clipPath id ="clip15" >
<rect x="0" y="0" height="541" width="876" transform="matrix(1,0,0,1,0,0)" />
</clipPath>
<g  clip-path="url(#clip15)" 
>
<g fill="none" stroke="#1ba3c6" stroke-opacity="1" stroke-width="1" stroke-linecap="square" stroke-linejoin="bevel" transform="matrix(1,0,0,1,0,0)"
font-family="Helvetica Neue" font-size="47" font-weight="700" font-style="normal" 
>
</g>
</g>

<clipPath id ="clip16" >
<rect x="0" y="0" height="542" width="877" transform="matrix(1,0,0,1,0,0)" />
</clipPath>
<g  clip-path="url(#clip16)" 
>
<g fill="none" stroke="#1ba3c6" stroke-opacity="1" stroke-width="1" stroke-linecap="square" stroke-linejoin="bevel" transform="matrix(1,0,0,1,0,0)"
font-family="Helvetica Neue" font-size="47" font-weight="700" font-style="normal" 
>
</g>
</g>

<clipPath id ="clip17" >
<rect x="0" y="0" height="542" width="877" transform="matrix(1,0,0,1,0,0)" />
</clipPath>
<g  clip-path="url(#clip17)" 
>
<g fill="none" stroke="#1ba3c6" stroke-opacity="1" stroke-width="1" stroke-linecap="square" stroke-linejoin="bevel" transform="matrix(1,0,0,1,0,0)"
font-family="Helvetica Neue" font-size="47" font-weight="700" font-style="normal" 
>
</g>
</g>

<clipPath id ="clip18" >
<rect x="0" y="0" height="541" width="876" transform="matrix(1,0,0,1,0,0)" />
</clipPath>
<g  clip-path="url(#clip18)" 
>
<g fill="none" stroke="#1ba3c6" stroke-opacity="1" stroke-width="1" stroke-linecap="square" stroke-linejoin="bevel" transform="matrix(1,0,0,1,0,0)"
font-family="Helvetica Neue" font-size="47" font-weight="700" font-style="normal" 
>
</g>
</g>

<clipPath id ="clip19" >
<rect x="0" y="0" height="542" width="877" transform="matrix(1,0,0,1,0,0)" />
</clipPath>
<g  clip-path="url(#clip19)" 
>
<g fill="none" stroke="#1ba3c6" stroke-opacity="1" stroke-width="1" stroke-linecap="square" stroke-linejoin="bevel" transform="matrix(1,0,0,1,0,0)"
font-family="Helvetica Neue" font-size="47" font-weight="700" font-style="normal" 
>
</g>
</g>

<clipPath id ="clip20" >
<rect x="0" y="0" height="542" width="877" transform="matrix(1,0,0,1,0,0)" />
</clipPath>
<g  clip-path="url(#clip20)" 
>
<g fill="none" stroke="#1ba3c6" stroke-opacity="1" stroke-width="1" stroke-linecap="square" stroke-linejoin="bevel" transform="matrix(1,0,0,1,0,0)"
font-family="Helvetica Neue" font-size="47" font-weight="700" font-style="normal" 
>
</g>
</g>

<clipPath id ="clip21" >
<rect x="0" y="0" height="541" width="876" transform="matrix(1,0,0,1,0,0)" />
</clipPath>
<g  clip-path="url(#clip21)" 
>
<g fill="none" stroke="#1ba3c6" stroke-opacity="1" stroke-width="1" stroke-linecap="square" stroke-linejoin="bevel" transform="matrix(1,0,0,1,0,0)"
font-family="Helvetica Neue" font-size="47" font-weight="700" font-style="normal" 
>
</g>
</g>

<clipPath id ="clip22" >
<rect x="0" y="0" height="542" width="877" transform="matrix(1,0,0,1,0,0)" />
</clipPath>
<g  clip-path="url(#clip22)" 
>
<g fill="none" stroke="#1ba3c6" stroke-opacity="1" stroke-width="1" stroke-linecap="square" stroke-linejoin="bevel" transform="matrix(1,0,0,1,0,0)"
font-family="Helvetica Neue" font-size="47" font-weight="700" font-style="normal" 
>
</g>
</g>

<clipPath id ="clip23" >
<rect x="0" y="0" height="542" width="877" transform="matrix(1,0,0,1,0,0)" />
</clipPath>
<g  clip-path="url(#clip23)" 
>
<g fill="none" stroke="#1ba3c6" stroke-opacity="1" stroke-width="1" stroke-linecap="square" stroke-linejoin="bevel" transform="matrix(1,0,0,1,0,0)"
font-family="Helvetica Neue" font-size="47" font-weight="700" font-style="normal" 
>
</g>
</g>

<clipPath id ="clip24" >
<rect x="0" y="0" height="541" width="876" transform="matrix(1,0,0,1,0,0)" />
</clipPath>
<g  clip-path="url(#clip24)" 
>
<g fill="none" stroke="#1ba3c6" stroke-opacity="1" stroke-width="1" stroke-linecap="square" stroke-linejoin="bevel" transform="matrix(1,0,0,1,0,0)"
font-family="Helvetica Neue" font-size="47" font-weight="700" font-style="normal" 
>
</g>
</g>

<clipPath id ="clip25" >
<rect x="0" y="0" height="542" width="877" transform="matrix(1,0,0,1,0,0)" />
</clipPath>
<g  clip-path="url(#clip25)" 
>
<g fill="none" stroke="#1ba3c6" stroke-opacity="1" stroke-width="1" stroke-linecap="square" stroke-linejoin="bevel" transform="matrix(1,0,0,1,0,0)"
font-family="Helvetica Neue" font-size="47" font-weight="700" font-style="normal" 
>
</g>
</g>

<g >
<g fill="none" stroke="#1ba3c6" stroke-opacity="1" stroke-width="1" stroke-linecap="square" stroke-linejoin="bevel" transform="matrix(1,0,0,1,0,0)"
font-family="Helvetica Neue" font-size="47" font-weight="700" font-style="normal" 
>
</g>
</g>
</g>
</svg>
