<?xml version="1.0" encoding="UTF-8" standalone="no"?>
<svg width="358.775mm" height="228.865mm"
 xmlns="http://www.w3.org/2000/svg" xmlns:xlink="http://www.w3.org/1999/xlink"  version="1.2" baseProfile="tiny">
<title>song bubbles</title>
<desc>Rendered by Tableau</desc>
<defs>
</defs>
<g fill="none" stroke="black" stroke-width="1" fill-rule="evenodd" stroke-linecap="square" stroke-linejoin="bevel" >

<g >
<g fill="#ffffff" fill-opacity="1" stroke="none" transform="matrix(1,0,0,1,0,0)"
font-family="Benton Sans Book" font-size="16" font-weight="400" font-style="normal" 
>
<rect x="0" y="0" width="1356" height="865"/>
</g>
</g>

<g >
<g fill="#ffffff" fill-opacity="1" stroke="none" transform="matrix(1,0,0,1,0,0)"
font-family="Benton Sans Book" font-size="16" font-weight="400" font-style="normal" 
>
<rect x="0" y="0" width="1356" height="865"/>
</g>
</g>

<clipPath id ="clip1" >
<rect x="0" y="0" height="866" width="1357" transform="matrix(1,0,0,1,0,0)" />
</clipPath>
<g  clip-path="url(#clip1)" 
>
<g fill="none" stroke="#000000" stroke-opacity="1" stroke-width="1" stroke-linecap="square" stroke-linejoin="bevel" transform="matrix(1,0,0,1,0,0)"
font-family="Benton Sans Book" font-size="16" font-weight="400" font-style="normal" 
>
</g>
</g>

<clipPath id ="clip2" >
<rect x="0" y="0" height="866" width="1357" transform="matrix(1,0,0,1,0,0)" />
</clipPath>
<g  clip-path="url(#clip2)" 
>
<g fill="none" stroke="#000000" stroke-opacity="1" stroke-width="1" stroke-linecap="square" stroke-linejoin="bevel" transform="matrix(1,0,0,1,0,0)"
font-family="Benton Sans Book" font-size="16" font-weight="400" font-style="normal" 
>
</g>
</g>

<g  clip-path="url(#clip2)" 
>
<g fill="#ffffff" fill-opacity="1" stroke="none" transform="matrix(1,0,0,1,0,0)"
font-family="Benton Sans Book" font-size="16" font-weight="400" font-style="normal" 
>
<rect x="0" y="0" width="1357" height="866"/>
</g>
</g>

<g  clip-path="url(#clip2)" 
>
<g fill="#ffffff" fill-opacity="1" stroke="none" transform="matrix(1,0,0,1,0,0)"
font-family="Benton Sans Book" font-size="16" font-weight="400" font-style="normal" 
>
<rect x="0" y="0" width="1357" height="866"/>
</g>
</g>

<clipPath id ="clip3" >
<rect x="0" y="0" height="865" width="1356" transform="matrix(1,0,0,1,0,0)" />
</clipPath>
<g  clip-path="url(#clip3)" 
>
<g fill="none" stroke="#000000" stroke-opacity="1" stroke-width="1" stroke-linecap="square" stroke-linejoin="bevel" transform="matrix(1,0,0,1,0,0)"
font-family="Benton Sans Book" font-size="16" font-weight="400" font-style="normal" 
>
</g>
</g>

<g  clip-path="url(#clip3)" 
>
<g fill="#ffffff" fill-opacity="1" stroke="none" transform="matrix(1,0,0,1,0,0)"
font-family="Benton Sans Book" font-size="16" font-weight="400" font-style="normal" 
>
<rect x="0" y="0" width="1357" height="866"/>
</g>
</g>

<clipPath id ="clip4" >
<rect x="0" y="0" height="866" width="1357" transform="matrix(1,0,0,1,0,0)" />
</clipPath>
<g  clip-path="url(#clip4)" 
>
<g fill="none" stroke="#000000" stroke-opacity="1" stroke-width="1" stroke-linecap="square" stroke-linejoin="bevel" transform="matrix(1,0,0,1,0,0)"
font-family="Benton Sans Book" font-size="16" font-weight="400" font-style="normal" 
>
</g>
</g>

<clipPath id ="clip5" >
<rect x="0" y="0" height="866" width="1357" transform="matrix(1,0,0,1,0,0)" />
</clipPath>
<g  clip-path="url(#clip5)" 
>
<g fill="none" stroke="#000000" stroke-opacity="1" stroke-width="1" stroke-linecap="square" stroke-linejoin="bevel" transform="matrix(1,0,0,1,0,0)"
font-family="Benton Sans Book" font-size="16" font-weight="400" font-style="normal" 
>
</g>
</g>

<clipPath id ="clip6" >
<rect x="0" y="0" height="866" width="1357" transform="matrix(1,0,0,1,0,0)" />
</clipPath>
<g  clip-path="url(#clip6)" 
>
<g fill="none" stroke="#000000" stroke-opacity="1" stroke-width="1" stroke-linecap="square" stroke-linejoin="bevel" transform="matrix(1,0,0,1,0,0)"
font-family="Benton Sans Book" font-size="16" font-weight="400" font-style="normal" 
>
</g>
</g>

<clipPath id ="clip7" >
<rect x="0" y="0" height="866" width="1357" transform="matrix(1,0,0,1,0,0)" />
</clipPath>
<g  clip-path="url(#clip7)" 
>
<g fill="none" stroke="#000000" stroke-opacity="1" stroke-width="1" stroke-linecap="square" stroke-linejoin="bevel" transform="matrix(1,0,0,1,0,0)"
font-family="Benton Sans Book" font-size="16" font-weight="400" font-style="normal" 
>
</g>
</g>

<g  clip-path="url(#clip7)" 
>
<g fill="#ffffff" fill-opacity="1" stroke="none" transform="matrix(1,0,0,1,0,0)"
font-family="Benton Sans Book" font-size="16" font-weight="400" font-style="normal" 
>
<rect x="0" y="0" width="1357" height="866"/>
</g>
</g>

<clipPath id ="clip8" >
<rect x="0" y="0" height="866" width="1357" transform="matrix(1,0,0,1,0,0)" />
</clipPath>
<g  clip-path="url(#clip8)" 
>
<g fill="none" stroke="#000000" stroke-opacity="1" stroke-width="1" stroke-linecap="square" stroke-linejoin="bevel" transform="matrix(1,0,0,1,0,0)"
font-family="Benton Sans Book" font-size="16" font-weight="400" font-style="normal" 
>
</g>
</g>

<clipPath id ="clip9" >
<rect x="0" y="0" height="865" width="1356" transform="matrix(1,0,0,1,0,0)" />
</clipPath>
<g  clip-path="url(#clip9)" 
>
<g fill="none" stroke="#000000" stroke-opacity="1" stroke-width="1" stroke-linecap="square" stroke-linejoin="bevel" transform="matrix(1,0,0,1,0,0)"
font-family="Benton Sans Book" font-size="16" font-weight="400" font-style="normal" 
>
</g>
</g>

<clipPath id ="clip10" >
<rect x="0" y="0" height="866" width="1357" transform="matrix(1,0,0,1,0,0)" />
</clipPath>
<g  clip-path="url(#clip10)" 
>
<g fill="none" stroke="#000000" stroke-opacity="1" stroke-width="1" stroke-linecap="square" stroke-linejoin="bevel" transform="matrix(1,0,0,1,0,0)"
font-family="Benton Sans Book" font-size="16" font-weight="400" font-style="normal" 
>
</g>
</g>

<clipPath id ="clip11" >
<rect x="0" y="0" height="865" width="1356" transform="matrix(1,0,0,1,0,0)" />
</clipPath>
<g  clip-path="url(#clip11)" 
>
<g fill="none" stroke="#000000" stroke-opacity="1" stroke-width="1" stroke-linecap="square" stroke-linejoin="bevel" transform="matrix(1,0,0,1,0,0)"
font-family="Benton Sans Book" font-size="16" font-weight="400" font-style="normal" 
>
</g>
</g>

<clipPath id ="clip12" >
<rect x="0" y="0" height="866" width="1357" transform="matrix(1,0,0,1,0,0)" />
</clipPath>
<g  clip-path="url(#clip12)" 
>
<g fill="none" stroke="#000000" stroke-opacity="1" stroke-width="1" stroke-linecap="square" stroke-linejoin="bevel" transform="matrix(1,0,0,1,0,0)"
font-family="Benton Sans Book" font-size="16" font-weight="400" font-style="normal" 
>
</g>
</g>

<clipPath id ="clip13" >
<rect x="0" y="0" height="866" width="1357" transform="matrix(1,0,0,1,0,0)" />
</clipPath>
<g  clip-path="url(#clip13)" 
>
<g fill="none" stroke="#000000" stroke-opacity="1" stroke-width="1" stroke-linecap="square" stroke-linejoin="bevel" transform="matrix(1,0,0,1,0,0)"
font-family="Benton Sans Book" font-size="16" font-weight="400" font-style="normal" 
>
</g>
</g>

<clipPath id ="clip14" >
<rect x="0" y="0" height="865" width="1356" transform="matrix(1,0,0,1,0,0)" />
</clipPath>
<g  clip-path="url(#clip14)" 
>
<g fill="none" stroke="#000000" stroke-opacity="1" stroke-width="1" stroke-linecap="square" stroke-linejoin="bevel" transform="matrix(1,0,0,1,0,0)"
font-family="Benton Sans Book" font-size="16" font-weight="400" font-style="normal" 
>
</g>
</g>

<g  clip-path="url(#clip14)" 
>
<g fill="#4f7cba" fill-opacity="0.666667" stroke="none" transform="matrix(1,0,0,1,0,0)"
font-family="Benton Sans Book" font-size="16" font-weight="400" font-style="normal" 
>
<circle cx="1049.99" cy="575.649" r="17.1687" />
</g>
</g>

<g  clip-path="url(#clip14)" 
>
<g fill="#5e78bc" fill-opacity="0.666667" stroke="none" transform="matrix(1,0,0,1,0,0)"
font-family="Benton Sans Book" font-size="16" font-weight="400" font-style="normal" 
>
<circle cx="1059.69" cy="541.252" r="18.5703" />
</g>
</g>

<g  clip-path="url(#clip14)" 
>
<g fill="#6e75be" fill-opacity="0.666667" stroke="none" transform="matrix(1,0,0,1,0,0)"
font-family="Benton Sans Book" font-size="16" font-weight="400" font-style="normal" 
>
<circle cx="391.037" cy="731.548" r="19.9718" />
</g>
</g>

<g  clip-path="url(#clip14)" 
>
<g fill="#7e72c1" fill-opacity="0.666667" stroke="none" transform="matrix(1,0,0,1,0,0)"
font-family="Benton Sans Book" font-size="16" font-weight="400" font-style="normal" 
>
<circle cx="426.632" cy="752.581" r="21.3733" />
</g>
</g>

<g  clip-path="url(#clip14)" 
>
<g fill="#8e6fc3" fill-opacity="0.666667" stroke="none" transform="matrix(1,0,0,1,0,0)"
font-family="Benton Sans Book" font-size="16" font-weight="400" font-style="normal" 
>
<circle cx="454.163" cy="787.093" r="22.7749" />
</g>
</g>

<g  clip-path="url(#clip14)" 
>
<g fill="#9f6dc2" fill-opacity="0.666667" stroke="none" transform="matrix(1,0,0,1,0,0)"
font-family="Benton Sans Book" font-size="16" font-weight="400" font-style="normal" 
>
<circle cx="297.626" cy="264.377" r="24.1764" />
</g>
</g>

<g  clip-path="url(#clip14)" 
>
<g fill="#b06cc1" fill-opacity="0.666667" stroke="none" transform="matrix(1,0,0,1,0,0)"
font-family="Benton Sans Book" font-size="16" font-weight="400" font-style="normal" 
>
<circle cx="284.922" cy="312.482" r="25.5779" />
</g>
</g>

<g  clip-path="url(#clip14)" 
>
<g fill="#c26abf" fill-opacity="0.666667" stroke="none" transform="matrix(1,0,0,1,0,0)"
font-family="Benton Sans Book" font-size="16" font-weight="400" font-style="normal" 
>
<circle cx="273.556" cy="363.795" r="26.9795" />
</g>
</g>

<g  clip-path="url(#clip14)" 
>
<g fill="#d369be" fill-opacity="0.666667" stroke="none" transform="matrix(1,0,0,1,0,0)"
font-family="Benton Sans Book" font-size="16" font-weight="400" font-style="normal" 
>
<circle cx="954.011" cy="100.938" r="28.381" />
</g>
</g>

<g  clip-path="url(#clip14)" 
>
<g fill="#de6cb9" fill-opacity="0.666667" stroke="none" transform="matrix(1,0,0,1,0,0)"
font-family="Benton Sans Book" font-size="16" font-weight="400" font-style="normal" 
>
<circle cx="896.364" cy="93.2076" r="29.7825" />
</g>
</g>

<g  clip-path="url(#clip14)" 
>
<g fill="#e771b5" fill-opacity="0.666667" stroke="none" transform="matrix(1,0,0,1,0,0)"
font-family="Benton Sans Book" font-size="16" font-weight="400" font-style="normal" 
>
<circle cx="852.399" cy="50.9702" r="31.1841" />
</g>
</g>

<g  clip-path="url(#clip14)" 
>
<g fill="#f176b0" fill-opacity="0.666667" stroke="none" transform="matrix(1,0,0,1,0,0)"
font-family="Benton Sans Book" font-size="16" font-weight="400" font-style="normal" 
>
<circle cx="789.106" cy="43.1868" r="32.5856" />
</g>
</g>

<g  clip-path="url(#clip14)" 
>
<g fill="#fb7aab" fill-opacity="0.666667" stroke="none" transform="matrix(1,0,0,1,0,0)"
font-family="Benton Sans Book" font-size="16" font-weight="400" font-style="normal" 
>
<circle cx="722.643" cy="47.0178" r="33.9871" />
</g>
</g>

<g  clip-path="url(#clip14)" 
>
<g fill="#fc709c" fill-opacity="0.666667" stroke="none" transform="matrix(1,0,0,1,0,0)"
font-family="Benton Sans Book" font-size="16" font-weight="400" font-style="normal" 
>
<circle cx="654.166" cy="35.8886" r="35.3886" />
</g>
</g>

<g  clip-path="url(#clip14)" 
>
<g fill="#f9608b" fill-opacity="0.666667" stroke="none" transform="matrix(1,0,0,1,0,0)"
font-family="Benton Sans Book" font-size="16" font-weight="400" font-style="normal" 
>
<circle cx="505.735" cy="816.898" r="36.7902" />
</g>
</g>

<g  clip-path="url(#clip14)" 
>
<g fill="#f7507a" fill-opacity="0.666667" stroke="none" transform="matrix(1,0,0,1,0,0)"
font-family="Benton Sans Book" font-size="16" font-weight="400" font-style="normal" 
>
<circle cx="580.507" cy="811.286" r="38.1917" />
</g>
</g>

<g  clip-path="url(#clip14)" 
>
<g fill="#f44168" fill-opacity="0.666667" stroke="none" transform="matrix(1,0,0,1,0,0)"
font-family="Benton Sans Book" font-size="16" font-weight="400" font-style="normal" 
>
<circle cx="656.905" cy="825.907" r="39.5932" />
</g>
</g>

<g  clip-path="url(#clip14)" 
>
<g fill="#f03a59" fill-opacity="0.666667" stroke="none" transform="matrix(1,0,0,1,0,0)"
font-family="Benton Sans Book" font-size="16" font-weight="400" font-style="normal" 
>
<circle cx="735.237" cy="806.972" r="40.9948" />
</g>
</g>

<g  clip-path="url(#clip14)" 
>
<g fill="#eb374a" fill-opacity="0.666667" stroke="none" transform="matrix(1,0,0,1,0,0)"
font-family="Benton Sans Book" font-size="16" font-weight="400" font-style="normal" 
>
<circle cx="818.628" cy="807.138" r="42.3963" />
</g>
</g>

<g  clip-path="url(#clip14)" 
>
<g fill="#e6343c" fill-opacity="0.666667" stroke="none" transform="matrix(1,0,0,1,0,0)"
font-family="Benton Sans Book" font-size="16" font-weight="400" font-style="normal" 
>
<circle cx="583.601" cy="71.8189" r="43.7978" />
</g>
</g>

<g  clip-path="url(#clip14)" 
>
<g fill="#e1312e" fill-opacity="0.666667" stroke="none" transform="matrix(1,0,0,1,0,0)"
font-family="Benton Sans Book" font-size="16" font-weight="400" font-style="normal" 
>
<circle cx="497.422" cy="94.0391" r="45.1994" />
</g>
</g>

<g  clip-path="url(#clip14)" 
>
<g fill="#e23b25" fill-opacity="0.666667" stroke="none" transform="matrix(1,0,0,1,0,0)"
font-family="Benton Sans Book" font-size="16" font-weight="400" font-style="normal" 
>
<circle cx="1064.97" cy="476.296" r="46.6009" />
</g>
</g>

<g  clip-path="url(#clip14)" 
>
<g fill="#e84f1f" fill-opacity="0.666667" stroke="none" transform="matrix(1,0,0,1,0,0)"
font-family="Benton Sans Book" font-size="16" font-weight="400" font-style="normal" 
>
<circle cx="1038.6" cy="385.443" r="48.0024" />
</g>
</g>

<g  clip-path="url(#clip14)" 
>
<g fill="#ee631a" fill-opacity="0.666667" stroke="none" transform="matrix(1,0,0,1,0,0)"
font-family="Benton Sans Book" font-size="16" font-weight="400" font-style="normal" 
>
<circle cx="294.829" cy="437.157" r="49.404" />
</g>
</g>

<g  clip-path="url(#clip14)" 
>
<g fill="#f47715" fill-opacity="0.666667" stroke="none" transform="matrix(1,0,0,1,0,0)"
font-family="Benton Sans Book" font-size="16" font-weight="400" font-style="normal" 
>
<circle cx="432.087" cy="164.383" r="50.8055" />
</g>
</g>

<g  clip-path="url(#clip14)" 
>
<g fill="#f88714" fill-opacity="0.666667" stroke="none" transform="matrix(1,0,0,1,0,0)"
font-family="Benton Sans Book" font-size="16" font-weight="400" font-style="normal" 
>
<circle cx="372.291" cy="248.264" r="52.207" />
</g>
</g>

<g  clip-path="url(#clip14)" 
>
<g fill="#f89518" fill-opacity="0.666667" stroke="none" transform="matrix(1,0,0,1,0,0)"
font-family="Benton Sans Book" font-size="16" font-weight="400" font-style="normal" 
>
<circle cx="353.33" cy="352.367" r="53.6085" />
</g>
</g>

<g  clip-path="url(#clip14)" 
>
<g fill="#f8a31b" fill-opacity="0.666667" stroke="none" transform="matrix(1,0,0,1,0,0)"
font-family="Benton Sans Book" font-size="16" font-weight="400" font-style="normal" 
>
<circle cx="895.927" cy="747.868" r="55.0101" />
</g>
</g>

<g  clip-path="url(#clip14)" 
>
<g fill="#f8b11f" fill-opacity="0.666667" stroke="none" transform="matrix(1,0,0,1,0,0)"
font-family="Benton Sans Book" font-size="16" font-weight="400" font-style="normal" 
>
<circle cx="950.664" cy="650.818" r="56.4116" />
</g>
</g>

<g  clip-path="url(#clip14)" 
>
<g fill="#f1b921" fill-opacity="0.666667" stroke="none" transform="matrix(1,0,0,1,0,0)"
font-family="Benton Sans Book" font-size="16" font-weight="400" font-style="normal" 
>
<circle cx="983.309" cy="541.358" r="57.8131" />
</g>
</g>

<g  clip-path="url(#clip14)" 
>
<g fill="#e3ba21" fill-opacity="0.666667" stroke="none" transform="matrix(1,0,0,1,0,0)"
font-family="Benton Sans Book" font-size="16" font-weight="400" font-style="normal" 
>
<circle cx="977.2" cy="297.548" r="59.2147" />
</g>
</g>

<g  clip-path="url(#clip14)" 
>
<g fill="#d4bb21" fill-opacity="0.666667" stroke="none" transform="matrix(1,0,0,1,0,0)"
font-family="Benton Sans Book" font-size="16" font-weight="400" font-style="normal" 
>
<circle cx="931.105" cy="186.937" r="60.6162" />
</g>
</g>

<g  clip-path="url(#clip14)" 
>
<g fill="#c5bc21" fill-opacity="0.666667" stroke="none" transform="matrix(1,0,0,1,0,0)"
font-family="Benton Sans Book" font-size="16" font-weight="400" font-style="normal" 
>
<circle cx="324.413" cy="544.579" r="62.0177" />
</g>
</g>

<g  clip-path="url(#clip14)" 
>
<g fill="#b2ba24" fill-opacity="0.666667" stroke="none" transform="matrix(1,0,0,1,0,0)"
font-family="Benton Sans Book" font-size="16" font-weight="400" font-style="normal" 
>
<circle cx="395.026" cy="648.252" r="63.4193" />
</g>
</g>

<g  clip-path="url(#clip14)" 
>
<g fill="#95b32a" fill-opacity="0.666667" stroke="none" transform="matrix(1,0,0,1,0,0)"
font-family="Benton Sans Book" font-size="16" font-weight="400" font-style="normal" 
>
<circle cx="504.345" cy="715.296" r="64.8208" />
</g>
</g>

<g  clip-path="url(#clip14)" 
>
<g fill="#78ab30" fill-opacity="0.666667" stroke="none" transform="matrix(1,0,0,1,0,0)"
font-family="Benton Sans Book" font-size="16" font-weight="400" font-style="normal" 
>
<circle cx="635.199" cy="722.342" r="66.2223" />
</g>
</g>

<g  clip-path="url(#clip14)" 
>
<g fill="#5aa436" fill-opacity="0.666667" stroke="none" transform="matrix(1,0,0,1,0,0)"
font-family="Benton Sans Book" font-size="16" font-weight="400" font-style="normal" 
>
<circle cx="811.421" cy="140.88" r="67.6239" />
</g>
</g>

<g  clip-path="url(#clip14)" 
>
<g fill="#429f3f" fill-opacity="0.666667" stroke="none" transform="matrix(1,0,0,1,0,0)"
font-family="Benton Sans Book" font-size="16" font-weight="400" font-style="normal" 
>
<circle cx="674.797" cy="138.244" r="69.0254" />
</g>
</g>

<g  clip-path="url(#clip14)" 
>
<g fill="#39a350" fill-opacity="0.666667" stroke="none" transform="matrix(1,0,0,1,0,0)"
font-family="Benton Sans Book" font-size="16" font-weight="400" font-style="normal" 
>
<circle cx="548.653" cy="197.697" r="70.4269" />
</g>
</g>

<g  clip-path="url(#clip14)" 
>
<g fill="#30a761" fill-opacity="0.666667" stroke="none" transform="matrix(1,0,0,1,0,0)"
font-family="Benton Sans Book" font-size="16" font-weight="400" font-style="normal" 
>
<circle cx="474.228" cy="318.93" r="71.8284" />
</g>
</g>

<g  clip-path="url(#clip14)" 
>
<g fill="#26aa72" fill-opacity="0.666667" stroke="none" transform="matrix(1,0,0,1,0,0)"
font-family="Benton Sans Book" font-size="16" font-weight="400" font-style="normal" 
>
<circle cx="426.558" cy="455.932" r="73.23" />
</g>
</g>

<g  clip-path="url(#clip14)" 
>
<g fill="#1fae83" fill-opacity="0.666667" stroke="none" transform="matrix(1,0,0,1,0,0)"
font-family="Benton Sans Book" font-size="16" font-weight="400" font-style="normal" 
>
<circle cx="512.718" cy="576.096" r="74.6315" />
</g>
</g>

<g  clip-path="url(#clip14)" 
>
<g fill="#25b392" fill-opacity="0.666667" stroke="none" transform="matrix(1,0,0,1,0,0)"
font-family="Benton Sans Book" font-size="16" font-weight="400" font-style="normal" 
>
<circle cx="775.173" cy="696.969" r="76.033" />
</g>
</g>

<g  clip-path="url(#clip14)" 
>
<g fill="#2bb8a0" fill-opacity="0.666667" stroke="none" transform="matrix(1,0,0,1,0,0)"
font-family="Benton Sans Book" font-size="16" font-weight="400" font-style="normal" 
>
<circle cx="849.781" cy="562.857" r="77.4346" />
</g>
</g>

<g  clip-path="url(#clip14)" 
>
<g fill="#31bcaf" fill-opacity="0.666667" stroke="none" transform="matrix(1,0,0,1,0,0)"
font-family="Benton Sans Book" font-size="16" font-weight="400" font-style="normal" 
>
<circle cx="917.09" cy="421.825" r="78.8361" />
</g>
</g>

<g  clip-path="url(#clip14)" 
>
<g fill="#36c0bd" fill-opacity="0.666667" stroke="none" transform="matrix(1,0,0,1,0,0)"
font-family="Benton Sans Book" font-size="16" font-weight="400" font-style="normal" 
>
<circle cx="832.244" cy="287.268" r="80.2376" />
</g>
</g>

<g  clip-path="url(#clip14)" 
>
<g fill="#2fb9bf" fill-opacity="0.666667" stroke="none" transform="matrix(1,0,0,1,0,0)"
font-family="Benton Sans Book" font-size="16" font-weight="400" font-style="normal" 
>
<circle cx="670.375" cy="288.844" r="81.6392" />
</g>
</g>

<g  clip-path="url(#clip14)" 
>
<g fill="#28b1c1" fill-opacity="0.666667" stroke="none" transform="matrix(1,0,0,1,0,0)"
font-family="Benton Sans Book" font-size="16" font-weight="400" font-style="normal" 
>
<circle cx="670.386" cy="577.285" r="83.0407" />
</g>
</g>

<g  clip-path="url(#clip14)" 
>
<g fill="#21aac3" fill-opacity="0.666667" stroke="none" transform="matrix(1,0,0,1,0,0)"
font-family="Benton Sans Book" font-size="16" font-weight="400" font-style="normal" 
>
<circle cx="754.145" cy="432.251" r="84.4422" />
</g>
</g>

<g  clip-path="url(#clip14)" 
>
<g fill="#1ba3c6" fill-opacity="0.666667" stroke="none" transform="matrix(1,0,0,1,0,0)"
font-family="Benton Sans Book" font-size="16" font-weight="400" font-style="normal" 
>
<circle cx="583.859" cy="432.251" r="85.8437" />
</g>
</g>

<clipPath id ="clip15" >
<rect x="0" y="0" height="866" width="1357" transform="matrix(1,0,0,1,0,0)" />
</clipPath>
<g  clip-path="url(#clip15)" 
>
<g fill="#1ba3c6" fill-opacity="0.666667" stroke="none" transform="matrix(1,0,0,1,0,0)"
font-family="Benton Sans Book" font-size="16" font-weight="400" font-style="normal" 
>
</g>
</g>

<clipPath id ="clip16" >
<rect x="0" y="0" height="865" width="1356" transform="matrix(1,0,0,1,0,0)" />
</clipPath>
<g  clip-path="url(#clip16)" 
>
<g fill="#1ba3c6" fill-opacity="0.666667" stroke="none" transform="matrix(1,0,0,1,0,0)"
font-family="Benton Sans Book" font-size="16" font-weight="400" font-style="normal" 
>
</g>
</g>

<g  clip-path="url(#clip16)" 
>
<g fill="none" stroke="#000000" stroke-opacity="1" stroke-width="1" stroke-linecap="square" stroke-linejoin="bevel" transform="matrix(1,0,0,1,0,0)"
font-family="Helvetica Neue" font-size="15" font-weight="700" font-style="normal" 
>
<text fill="#000000" fill-opacity="1" stroke="none" xml:space="preserve" x="828" y="56" font-family="Helvetica Neue" font-size="15" font-weight="700" font-style="normal" 
 >DÁKITI</text>
</g>
</g>

<g  clip-path="url(#clip16)" 
>
<g fill="none" stroke="#000000" stroke-opacity="1" stroke-width="1" stroke-linecap="square" stroke-linejoin="bevel" transform="matrix(1,0,0,1,0,0)"
font-family="Helvetica Neue" font-size="15" font-weight="700" font-style="normal" 
>
<text fill="#000000" fill-opacity="1" stroke="none" xml:space="preserve" x="769" y="49" font-family="Helvetica Neue" font-size="15" font-weight="700" font-style="normal" 
 >Mood</text>
</g>
</g>

<g  clip-path="url(#clip16)" 
>
<g fill="none" stroke="#000000" stroke-opacity="1" stroke-width="1" stroke-linecap="square" stroke-linejoin="bevel" transform="matrix(1,0,0,1,0,0)"
font-family="Helvetica Neue" font-size="15" font-weight="700" font-style="normal" 
>
<text fill="#000000" fill-opacity="1" stroke="none" xml:space="preserve" x="563" y="67" font-family="Helvetica Neue" font-size="15" font-weight="700" font-style="normal" 
 >God's</text>
</g>
</g>

<g  clip-path="url(#clip16)" 
>
<g fill="none" stroke="#000000" stroke-opacity="1" stroke-width="1" stroke-linecap="square" stroke-linejoin="bevel" transform="matrix(1,0,0,1,0,0)"
font-family="Helvetica Neue" font-size="15" font-weight="700" font-style="normal" 
>
<text fill="#000000" fill-opacity="1" stroke="none" xml:space="preserve" x="568" y="85" font-family="Helvetica Neue" font-size="15" font-weight="700" font-style="normal" 
 >Plan</text>
</g>
</g>

<g  clip-path="url(#clip16)" 
>
<g fill="none" stroke="#000000" stroke-opacity="1" stroke-width="1" stroke-linecap="square" stroke-linejoin="bevel" transform="matrix(1,0,0,1,0,0)"
font-family="Helvetica Neue" font-size="15" font-weight="700" font-style="normal" 
>
<text fill="#000000" fill-opacity="1" stroke="none" xml:space="preserve" x="463" y="100" font-family="Helvetica Neue" font-size="15" font-weight="700" font-style="normal" 
 >As It Was</text>
</g>
</g>

<g  clip-path="url(#clip16)" 
>
<g fill="none" stroke="#000000" stroke-opacity="1" stroke-width="1" stroke-linecap="square" stroke-linejoin="bevel" transform="matrix(1,0,0,1,0,0)"
font-family="Helvetica Neue" font-size="15" font-weight="700" font-style="normal" 
>
<text fill="#000000" fill-opacity="1" stroke="none" xml:space="preserve" x="1028" y="472" font-family="Helvetica Neue" font-size="15" font-weight="700" font-style="normal" 
 >Bohemian</text>
</g>
</g>

<g  clip-path="url(#clip16)" 
>
<g fill="none" stroke="#000000" stroke-opacity="1" stroke-width="1" stroke-linecap="square" stroke-linejoin="bevel" transform="matrix(1,0,0,1,0,0)"
font-family="Helvetica Neue" font-size="15" font-weight="700" font-style="normal" 
>
<text fill="#000000" fill-opacity="1" stroke="none" xml:space="preserve" x="1029" y="490" font-family="Helvetica Neue" font-size="15" font-weight="700" font-style="normal" 
 >Rhapsody</text>
</g>
</g>

<g  clip-path="url(#clip16)" 
>
<g fill="none" stroke="#000000" stroke-opacity="1" stroke-width="1" stroke-linecap="square" stroke-linejoin="bevel" transform="matrix(1,0,0,1,0,0)"
font-family="Helvetica Neue" font-size="15" font-weight="700" font-style="normal" 
>
<text fill="#000000" fill-opacity="1" stroke="none" xml:space="preserve" x="1011" y="381" font-family="Helvetica Neue" font-size="15" font-weight="700" font-style="normal" 
 >Jocelyn</text>
</g>
</g>

<g  clip-path="url(#clip16)" 
>
<g fill="none" stroke="#000000" stroke-opacity="1" stroke-width="1" stroke-linecap="square" stroke-linejoin="bevel" transform="matrix(1,0,0,1,0,0)"
font-family="Helvetica Neue" font-size="15" font-weight="700" font-style="normal" 
>
<text fill="#000000" fill-opacity="1" stroke="none" xml:space="preserve" x="1016" y="399" font-family="Helvetica Neue" font-size="15" font-weight="700" font-style="normal" 
 >Flores</text>
</g>
</g>

<g  clip-path="url(#clip16)" 
>
<g fill="none" stroke="#000000" stroke-opacity="1" stroke-width="1" stroke-linecap="square" stroke-linejoin="bevel" transform="matrix(1,0,0,1,0,0)"
font-family="Helvetica Neue" font-size="15" font-weight="700" font-style="normal" 
>
<text fill="#000000" fill-opacity="1" stroke="none" xml:space="preserve" x="256" y="433" font-family="Helvetica Neue" font-size="15" font-weight="700" font-style="normal" 
 >INDUSTRY</text>
</g>
</g>

<g  clip-path="url(#clip16)" 
>
<g fill="none" stroke="#000000" stroke-opacity="1" stroke-width="1" stroke-linecap="square" stroke-linejoin="bevel" transform="matrix(1,0,0,1,0,0)"
font-family="Helvetica Neue" font-size="15" font-weight="700" font-style="normal" 
>
<text fill="#000000" fill-opacity="1" stroke="none" xml:space="preserve" x="274" y="451" font-family="Helvetica Neue" font-size="15" font-weight="700" font-style="normal" 
 >BABY</text>
</g>
</g>

<g  clip-path="url(#clip16)" 
>
<g fill="none" stroke="#000000" stroke-opacity="1" stroke-width="1" stroke-linecap="square" stroke-linejoin="bevel" transform="matrix(1,0,0,1,0,0)"
font-family="Helvetica Neue" font-size="15" font-weight="700" font-style="normal" 
>
<text fill="#000000" fill-opacity="1" stroke="none" xml:space="preserve" x="398" y="170" font-family="Helvetica Neue" font-size="15" font-weight="700" font-style="normal" 
 >Levitating</text>
</g>
</g>

<g  clip-path="url(#clip16)" 
>
<g fill="none" stroke="#000000" stroke-opacity="1" stroke-width="1" stroke-linecap="square" stroke-linejoin="bevel" transform="matrix(1,0,0,1,0,0)"
font-family="Helvetica Neue" font-size="15" font-weight="700" font-style="normal" 
>
<text fill="#000000" fill-opacity="1" stroke="none" xml:space="preserve" x="355" y="254" font-family="Helvetica Neue" font-size="15" font-weight="700" font-style="normal" 
 >SAD!</text>
</g>
</g>

<g  clip-path="url(#clip16)" 
>
<g fill="none" stroke="#000000" stroke-opacity="1" stroke-width="1" stroke-linecap="square" stroke-linejoin="bevel" transform="matrix(1,0,0,1,0,0)"
font-family="Helvetica Neue" font-size="15" font-weight="700" font-style="normal" 
>
<text fill="#000000" fill-opacity="1" stroke="none" xml:space="preserve" x="329" y="358" font-family="Helvetica Neue" font-size="15" font-weight="700" font-style="normal" 
 >7 rings</text>
</g>
</g>

<g  clip-path="url(#clip16)" 
>
<g fill="none" stroke="#000000" stroke-opacity="1" stroke-width="1" stroke-linecap="square" stroke-linejoin="bevel" transform="matrix(1,0,0,1,0,0)"
font-family="Helvetica Neue" font-size="15" font-weight="700" font-style="normal" 
>
<text fill="#000000" fill-opacity="1" stroke="none" xml:space="preserve" x="871" y="743" font-family="Helvetica Neue" font-size="15" font-weight="700" font-style="normal" 
 >drivers</text>
</g>
</g>

<g  clip-path="url(#clip16)" 
>
<g fill="none" stroke="#000000" stroke-opacity="1" stroke-width="1" stroke-linecap="square" stroke-linejoin="bevel" transform="matrix(1,0,0,1,0,0)"
font-family="Helvetica Neue" font-size="15" font-weight="700" font-style="normal" 
>
<text fill="#000000" fill-opacity="1" stroke="none" xml:space="preserve" x="871" y="761" font-family="Helvetica Neue" font-size="15" font-weight="700" font-style="normal" 
 >license</text>
</g>
</g>

<g  clip-path="url(#clip16)" 
>
<g fill="none" stroke="#000000" stroke-opacity="1" stroke-width="1" stroke-linecap="square" stroke-linejoin="bevel" transform="matrix(1,0,0,1,0,0)"
font-family="Helvetica Neue" font-size="15" font-weight="700" font-style="normal" 
>
<text fill="#000000" fill-opacity="1" stroke="none" xml:space="preserve" x="920" y="656" font-family="Helvetica Neue" font-size="15" font-weight="700" font-style="normal" 
 >good 4 u</text>
</g>
</g>

<g  clip-path="url(#clip16)" 
>
<g fill="none" stroke="#000000" stroke-opacity="1" stroke-width="1" stroke-linecap="square" stroke-linejoin="bevel" transform="matrix(1,0,0,1,0,0)"
font-family="Helvetica Neue" font-size="15" font-weight="700" font-style="normal" 
>
<text fill="#000000" fill-opacity="1" stroke="none" xml:space="preserve" x="956" y="547" font-family="Helvetica Neue" font-size="15" font-weight="700" font-style="normal" 
 >Shallow</text>
</g>
</g>

<g  clip-path="url(#clip16)" 
>
<g fill="none" stroke="#000000" stroke-opacity="1" stroke-width="1" stroke-linecap="square" stroke-linejoin="bevel" transform="matrix(1,0,0,1,0,0)"
font-family="Helvetica Neue" font-size="15" font-weight="700" font-style="normal" 
>
<text fill="#000000" fill-opacity="1" stroke="none" xml:space="preserve" x="955" y="303" font-family="Helvetica Neue" font-size="15" font-weight="700" font-style="normal" 
 >Closer</text>
</g>
</g>

<g  clip-path="url(#clip16)" 
>
<g fill="none" stroke="#000000" stroke-opacity="1" stroke-width="1" stroke-linecap="square" stroke-linejoin="bevel" transform="matrix(1,0,0,1,0,0)"
font-family="Helvetica Neue" font-size="15" font-weight="700" font-style="normal" 
>
<text fill="#000000" fill-opacity="1" stroke="none" xml:space="preserve" x="891" y="192" font-family="Helvetica Neue" font-size="15" font-weight="700" font-style="normal" 
 >One Dance</text>
</g>
</g>

<g  clip-path="url(#clip16)" 
>
<g fill="none" stroke="#000000" stroke-opacity="1" stroke-width="1" stroke-linecap="square" stroke-linejoin="bevel" transform="matrix(1,0,0,1,0,0)"
font-family="Helvetica Neue" font-size="15" font-weight="700" font-style="normal" 
>
<text fill="#000000" fill-opacity="1" stroke="none" xml:space="preserve" x="275" y="550" font-family="Helvetica Neue" font-size="15" font-weight="700" font-style="normal" 
 >Lucid Dreams</text>
</g>
</g>

<g  clip-path="url(#clip16)" 
>
<g fill="none" stroke="#000000" stroke-opacity="1" stroke-width="1" stroke-linecap="square" stroke-linejoin="bevel" transform="matrix(1,0,0,1,0,0)"
font-family="Helvetica Neue" font-size="15" font-weight="700" font-style="normal" 
>
<text fill="#000000" fill-opacity="1" stroke="none" xml:space="preserve" x="371" y="654" font-family="Helvetica Neue" font-size="15" font-weight="700" font-style="normal" 
 >Circles</text>
</g>
</g>

<g  clip-path="url(#clip16)" 
>
<g fill="none" stroke="#000000" stroke-opacity="1" stroke-width="1" stroke-linecap="square" stroke-linejoin="bevel" transform="matrix(1,0,0,1,0,0)"
font-family="Helvetica Neue" font-size="15" font-weight="700" font-style="normal" 
>
<text fill="#000000" fill-opacity="1" stroke="none" xml:space="preserve" x="476" y="721" font-family="Helvetica Neue" font-size="15" font-weight="700" font-style="normal" 
 >bad guy</text>
</g>
</g>

<g  clip-path="url(#clip16)" 
>
<g fill="none" stroke="#000000" stroke-opacity="1" stroke-width="1" stroke-linecap="square" stroke-linejoin="bevel" transform="matrix(1,0,0,1,0,0)"
font-family="Helvetica Neue" font-size="15" font-weight="700" font-style="normal" 
>
<text fill="#000000" fill-opacity="1" stroke="none" xml:space="preserve" x="583" y="718" font-family="Helvetica Neue" font-size="15" font-weight="700" font-style="normal" 
 >Say You Won't</text>
</g>
</g>

<g  clip-path="url(#clip16)" 
>
<g fill="none" stroke="#000000" stroke-opacity="1" stroke-width="1" stroke-linecap="square" stroke-linejoin="bevel" transform="matrix(1,0,0,1,0,0)"
font-family="Helvetica Neue" font-size="15" font-weight="700" font-style="normal" 
>
<text fill="#000000" fill-opacity="1" stroke="none" xml:space="preserve" x="612" y="736" font-family="Helvetica Neue" font-size="15" font-weight="700" font-style="normal" 
 >Let Go</text>
</g>
</g>

<g  clip-path="url(#clip16)" 
>
<g fill="none" stroke="#000000" stroke-opacity="1" stroke-width="1" stroke-linecap="square" stroke-linejoin="bevel" transform="matrix(1,0,0,1,0,0)"
font-family="Helvetica Neue" font-size="15" font-weight="700" font-style="normal" 
>
<text fill="#000000" fill-opacity="1" stroke="none" xml:space="preserve" x="791" y="146" font-family="Helvetica Neue" font-size="15" font-weight="700" font-style="normal" 
 >lovely</text>
</g>
</g>

<g  clip-path="url(#clip16)" 
>
<g fill="none" stroke="#000000" stroke-opacity="1" stroke-width="1" stroke-linecap="square" stroke-linejoin="bevel" transform="matrix(1,0,0,1,0,0)"
font-family="Helvetica Neue" font-size="15" font-weight="700" font-style="normal" 
>
<text fill="#000000" fill-opacity="1" stroke="none" xml:space="preserve" x="632" y="134" font-family="Helvetica Neue" font-size="15" font-weight="700" font-style="normal" 
 >Watermelon</text>
</g>
</g>

<g  clip-path="url(#clip16)" 
>
<g fill="none" stroke="#000000" stroke-opacity="1" stroke-width="1" stroke-linecap="square" stroke-linejoin="bevel" transform="matrix(1,0,0,1,0,0)"
font-family="Helvetica Neue" font-size="15" font-weight="700" font-style="normal" 
>
<text fill="#000000" fill-opacity="1" stroke="none" xml:space="preserve" x="654" y="152" font-family="Helvetica Neue" font-size="15" font-weight="700" font-style="normal" 
 >Sugar</text>
</g>
</g>

<g  clip-path="url(#clip16)" 
>
<g fill="none" stroke="#000000" stroke-opacity="1" stroke-width="1" stroke-linecap="square" stroke-linejoin="bevel" transform="matrix(1,0,0,1,0,0)"
font-family="Helvetica Neue" font-size="15" font-weight="700" font-style="normal" 
>
<text fill="#000000" fill-opacity="1" stroke="none" xml:space="preserve" x="507" y="203" font-family="Helvetica Neue" font-size="15" font-weight="700" font-style="normal" 
 >Heat Waves</text>
</g>
</g>

<g  clip-path="url(#clip16)" 
>
<g fill="none" stroke="#000000" stroke-opacity="1" stroke-width="1" stroke-linecap="square" stroke-linejoin="bevel" transform="matrix(1,0,0,1,0,0)"
font-family="Helvetica Neue" font-size="15" font-weight="700" font-style="normal" 
>
<text fill="#000000" fill-opacity="1" stroke="none" xml:space="preserve" x="418" y="324" font-family="Helvetica Neue" font-size="15" font-weight="700" font-style="normal" 
 >Don't Start Now</text>
</g>
</g>

<g  clip-path="url(#clip16)" 
>
<g fill="none" stroke="#000000" stroke-opacity="1" stroke-width="1" stroke-linecap="square" stroke-linejoin="bevel" transform="matrix(1,0,0,1,0,0)"
font-family="Helvetica Neue" font-size="15" font-weight="700" font-style="normal" 
>
<text fill="#000000" fill-opacity="1" stroke="none" xml:space="preserve" x="397" y="461" font-family="Helvetica Neue" font-size="15" font-weight="700" font-style="normal" 
 >rockstar</text>
</g>
</g>

<g  clip-path="url(#clip16)" 
>
<g fill="none" stroke="#000000" stroke-opacity="1" stroke-width="1" stroke-linecap="square" stroke-linejoin="bevel" transform="matrix(1,0,0,1,0,0)"
font-family="Helvetica Neue" font-size="15" font-weight="700" font-style="normal" 
>
<text fill="#000000" fill-opacity="1" stroke="none" xml:space="preserve" x="482" y="582" font-family="Helvetica Neue" font-size="15" font-weight="700" font-style="normal" 
 >Señorita</text>
</g>
</g>

<g  clip-path="url(#clip16)" 
>
<g fill="none" stroke="#000000" stroke-opacity="1" stroke-width="1" stroke-linecap="square" stroke-linejoin="bevel" transform="matrix(1,0,0,1,0,0)"
font-family="Helvetica Neue" font-size="15" font-weight="700" font-style="normal" 
>
<text fill="#000000" fill-opacity="1" stroke="none" xml:space="preserve" x="756" y="702" font-family="Helvetica Neue" font-size="15" font-weight="700" font-style="normal" 
 >STAY</text>
</g>
</g>

<g  clip-path="url(#clip16)" 
>
<g fill="none" stroke="#000000" stroke-opacity="1" stroke-width="1" stroke-linecap="square" stroke-linejoin="bevel" transform="matrix(1,0,0,1,0,0)"
font-family="Helvetica Neue" font-size="15" font-weight="700" font-style="normal" 
>
<text fill="#000000" fill-opacity="1" stroke="none" xml:space="preserve" x="824" y="568" font-family="Helvetica Neue" font-size="15" font-weight="700" font-style="normal" 
 >Perfect</text>
</g>
</g>

<g  clip-path="url(#clip16)" 
>
<g fill="none" stroke="#000000" stroke-opacity="1" stroke-width="1" stroke-linecap="square" stroke-linejoin="bevel" transform="matrix(1,0,0,1,0,0)"
font-family="Helvetica Neue" font-size="15" font-weight="700" font-style="normal" 
>
<text fill="#000000" fill-opacity="1" stroke="none" xml:space="preserve" x="889" y="427" font-family="Helvetica Neue" font-size="15" font-weight="700" font-style="normal" 
 >Believer</text>
</g>
</g>

<g  clip-path="url(#clip16)" 
>
<g fill="none" stroke="#000000" stroke-opacity="1" stroke-width="1" stroke-linecap="square" stroke-linejoin="bevel" transform="matrix(1,0,0,1,0,0)"
font-family="Helvetica Neue" font-size="15" font-weight="700" font-style="normal" 
>
<text fill="#000000" fill-opacity="1" stroke="none" xml:space="preserve" x="797" y="293" font-family="Helvetica Neue" font-size="15" font-weight="700" font-style="normal" 
 >Sunflower</text>
</g>
</g>

<g  clip-path="url(#clip16)" 
>
<g fill="none" stroke="#000000" stroke-opacity="1" stroke-width="1" stroke-linecap="square" stroke-linejoin="bevel" transform="matrix(1,0,0,1,0,0)"
font-family="Helvetica Neue" font-size="15" font-weight="700" font-style="normal" 
>
<text fill="#000000" fill-opacity="1" stroke="none" xml:space="preserve" x="620" y="284" font-family="Helvetica Neue" font-size="15" font-weight="700" font-style="normal" 
 >Someone You</text>
</g>
</g>

<g  clip-path="url(#clip16)" 
>
<g fill="none" stroke="#000000" stroke-opacity="1" stroke-width="1" stroke-linecap="square" stroke-linejoin="bevel" transform="matrix(1,0,0,1,0,0)"
font-family="Helvetica Neue" font-size="15" font-weight="700" font-style="normal" 
>
<text fill="#000000" fill-opacity="1" stroke="none" xml:space="preserve" x="649" y="302" font-family="Helvetica Neue" font-size="15" font-weight="700" font-style="normal" 
 >Loved</text>
</g>
</g>

<g  clip-path="url(#clip16)" 
>
<g fill="none" stroke="#000000" stroke-opacity="1" stroke-width="1" stroke-linecap="square" stroke-linejoin="bevel" transform="matrix(1,0,0,1,0,0)"
font-family="Helvetica Neue" font-size="15" font-weight="700" font-style="normal" 
>
<text fill="#000000" fill-opacity="1" stroke="none" xml:space="preserve" x="617" y="583" font-family="Helvetica Neue" font-size="15" font-weight="700" font-style="normal" 
 >Dance Monkey</text>
</g>
</g>

<g  clip-path="url(#clip16)" 
>
<g fill="none" stroke="#000000" stroke-opacity="1" stroke-width="1" stroke-linecap="square" stroke-linejoin="bevel" transform="matrix(1,0,0,1,0,0)"
font-family="Helvetica Neue" font-size="15" font-weight="700" font-style="normal" 
>
<text fill="#000000" fill-opacity="1" stroke="none" xml:space="preserve" x="701" y="438" font-family="Helvetica Neue" font-size="15" font-weight="700" font-style="normal" 
 >Blinding Lights</text>
</g>
</g>

<g  clip-path="url(#clip16)" 
>
<g fill="none" stroke="#000000" stroke-opacity="1" stroke-width="1" stroke-linecap="square" stroke-linejoin="bevel" transform="matrix(1,0,0,1,0,0)"
font-family="Helvetica Neue" font-size="15" font-weight="700" font-style="normal" 
>
<text fill="#000000" fill-opacity="1" stroke="none" xml:space="preserve" x="535" y="438" font-family="Helvetica Neue" font-size="15" font-weight="700" font-style="normal" 
 >Shape of You</text>
</g>
</g>

<clipPath id ="clip17" >
<rect x="0" y="0" height="866" width="1357" transform="matrix(1,0,0,1,0,0)" />
</clipPath>
<g  clip-path="url(#clip17)" 
>
<g fill="none" stroke="#000000" stroke-opacity="1" stroke-width="1" stroke-linecap="square" stroke-linejoin="bevel" transform="matrix(1,0,0,1,0,0)"
font-family="Helvetica Neue" font-size="15" font-weight="700" font-style="normal" 
>
</g>
</g>

<clipPath id ="clip18" >
<rect x="0" y="0" height="866" width="1357" transform="matrix(1,0,0,1,0,0)" />
</clipPath>
<g  clip-path="url(#clip18)" 
>
<g fill="none" stroke="#000000" stroke-opacity="1" stroke-width="1" stroke-linecap="square" stroke-linejoin="bevel" transform="matrix(1,0,0,1,0,0)"
font-family="Helvetica Neue" font-size="15" font-weight="700" font-style="normal" 
>
</g>
</g>

<clipPath id ="clip19" >
<rect x="0" y="0" height="865" width="1356" transform="matrix(1,0,0,1,0,0)" />
</clipPath>
<g  clip-path="url(#clip19)" 
>
<g fill="none" stroke="#000000" stroke-opacity="1" stroke-width="1" stroke-linecap="square" stroke-linejoin="bevel" transform="matrix(1,0,0,1,0,0)"
font-family="Helvetica Neue" font-size="15" font-weight="700" font-style="normal" 
>
</g>
</g>

<clipPath id ="clip20" >
<rect x="0" y="0" height="866" width="1357" transform="matrix(1,0,0,1,0,0)" />
</clipPath>
<g  clip-path="url(#clip20)" 
>
<g fill="none" stroke="#000000" stroke-opacity="1" stroke-width="1" stroke-linecap="square" stroke-linejoin="bevel" transform="matrix(1,0,0,1,0,0)"
font-family="Helvetica Neue" font-size="15" font-weight="700" font-style="normal" 
>
</g>
</g>

<clipPath id ="clip21" >
<rect x="0" y="0" height="865" width="1356" transform="matrix(1,0,0,1,0,0)" />
</clipPath>
<g  clip-path="url(#clip21)" 
>
<g fill="none" stroke="#000000" stroke-opacity="1" stroke-width="1" stroke-linecap="square" stroke-linejoin="bevel" transform="matrix(1,0,0,1,0,0)"
font-family="Helvetica Neue" font-size="15" font-weight="700" font-style="normal" 
>
</g>
</g>

<clipPath id ="clip22" >
<rect x="0" y="0" height="866" width="1357" transform="matrix(1,0,0,1,0,0)" />
</clipPath>
<g  clip-path="url(#clip22)" 
>
<g fill="none" stroke="#000000" stroke-opacity="1" stroke-width="1" stroke-linecap="square" stroke-linejoin="bevel" transform="matrix(1,0,0,1,0,0)"
font-family="Helvetica Neue" font-size="15" font-weight="700" font-style="normal" 
>
</g>
</g>

<clipPath id ="clip23" >
<rect x="0" y="0" height="866" width="1357" transform="matrix(1,0,0,1,0,0)" />
</clipPath>
<g  clip-path="url(#clip23)" 
>
<g fill="none" stroke="#000000" stroke-opacity="1" stroke-width="1" stroke-linecap="square" stroke-linejoin="bevel" transform="matrix(1,0,0,1,0,0)"
font-family="Helvetica Neue" font-size="15" font-weight="700" font-style="normal" 
>
</g>
</g>

<clipPath id ="clip24" >
<rect x="0" y="0" height="865" width="1356" transform="matrix(1,0,0,1,0,0)" />
</clipPath>
<g  clip-path="url(#clip24)" 
>
<g fill="none" stroke="#000000" stroke-opacity="1" stroke-width="1" stroke-linecap="square" stroke-linejoin="bevel" transform="matrix(1,0,0,1,0,0)"
font-family="Helvetica Neue" font-size="15" font-weight="700" font-style="normal" 
>
</g>
</g>

<clipPath id ="clip25" >
<rect x="0" y="0" height="866" width="1357" transform="matrix(1,0,0,1,0,0)" />
</clipPath>
<g  clip-path="url(#clip25)" 
>
<g fill="none" stroke="#000000" stroke-opacity="1" stroke-width="1" stroke-linecap="square" stroke-linejoin="bevel" transform="matrix(1,0,0,1,0,0)"
font-family="Helvetica Neue" font-size="15" font-weight="700" font-style="normal" 
>
</g>
</g>

<clipPath id ="clip26" >
<rect x="0" y="0" height="865" width="1356" transform="matrix(1,0,0,1,0,0)" />
</clipPath>
<g  clip-path="url(#clip26)" 
>
<g fill="none" stroke="#000000" stroke-opacity="1" stroke-width="1" stroke-linecap="square" stroke-linejoin="bevel" transform="matrix(1,0,0,1,0,0)"
font-family="Helvetica Neue" font-size="15" font-weight="700" font-style="normal" 
>
</g>
</g>

<clipPath id ="clip27" >
<rect x="0" y="0" height="866" width="1357" transform="matrix(1,0,0,1,0,0)" />
</clipPath>
<g  clip-path="url(#clip27)" 
>
<g fill="none" stroke="#000000" stroke-opacity="1" stroke-width="1" stroke-linecap="square" stroke-linejoin="bevel" transform="matrix(1,0,0,1,0,0)"
font-family="Helvetica Neue" font-size="15" font-weight="700" font-style="normal" 
>
</g>
</g>

<clipPath id ="clip28" >
<rect x="0" y="0" height="866" width="1357" transform="matrix(1,0,0,1,0,0)" />
</clipPath>
<g  clip-path="url(#clip28)" 
>
<g fill="none" stroke="#000000" stroke-opacity="1" stroke-width="1" stroke-linecap="square" stroke-linejoin="bevel" transform="matrix(1,0,0,1,0,0)"
font-family="Helvetica Neue" font-size="15" font-weight="700" font-style="normal" 
>
</g>
</g>

<clipPath id ="clip29" >
<rect x="0" y="0" height="865" width="1356" transform="matrix(1,0,0,1,0,0)" />
</clipPath>
<g  clip-path="url(#clip29)" 
>
<g fill="none" stroke="#000000" stroke-opacity="1" stroke-width="1" stroke-linecap="square" stroke-linejoin="bevel" transform="matrix(1,0,0,1,0,0)"
font-family="Helvetica Neue" font-size="15" font-weight="700" font-style="normal" 
>
</g>
</g>

<clipPath id ="clip30" >
<rect x="0" y="0" height="866" width="1357" transform="matrix(1,0,0,1,0,0)" />
</clipPath>
<g  clip-path="url(#clip30)" 
>
<g fill="none" stroke="#000000" stroke-opacity="1" stroke-width="1" stroke-linecap="square" stroke-linejoin="bevel" transform="matrix(1,0,0,1,0,0)"
font-family="Helvetica Neue" font-size="15" font-weight="700" font-style="normal" 
>
</g>
</g>

<clipPath id ="clip31" >
<rect x="0" y="0" height="865" width="1356" transform="matrix(1,0,0,1,0,0)" />
</clipPath>
<g  clip-path="url(#clip31)" 
>
<g fill="none" stroke="#000000" stroke-opacity="1" stroke-width="1" stroke-linecap="square" stroke-linejoin="bevel" transform="matrix(1,0,0,1,0,0)"
font-family="Helvetica Neue" font-size="15" font-weight="700" font-style="normal" 
>
</g>
</g>

<clipPath id ="clip32" >
<rect x="0" y="0" height="866" width="1357" transform="matrix(1,0,0,1,0,0)" />
</clipPath>
<g  clip-path="url(#clip32)" 
>
<g fill="none" stroke="#000000" stroke-opacity="1" stroke-width="1" stroke-linecap="square" stroke-linejoin="bevel" transform="matrix(1,0,0,1,0,0)"
font-family="Helvetica Neue" font-size="15" font-weight="700" font-style="normal" 
>
</g>
</g>

<clipPath id ="clip33" >
<rect x="0" y="0" height="866" width="1357" transform="matrix(1,0,0,1,0,0)" />
</clipPath>
<g  clip-path="url(#clip33)" 
>
<g fill="none" stroke="#000000" stroke-opacity="1" stroke-width="1" stroke-linecap="square" stroke-linejoin="bevel" transform="matrix(1,0,0,1,0,0)"
font-family="Helvetica Neue" font-size="15" font-weight="700" font-style="normal" 
>
</g>
</g>

<clipPath id ="clip34" >
<rect x="0" y="0" height="865" width="1356" transform="matrix(1,0,0,1,0,0)" />
</clipPath>
<g  clip-path="url(#clip34)" 
>
<g fill="none" stroke="#000000" stroke-opacity="1" stroke-width="1" stroke-linecap="square" stroke-linejoin="bevel" transform="matrix(1,0,0,1,0,0)"
font-family="Helvetica Neue" font-size="15" font-weight="700" font-style="normal" 
>
</g>
</g>

<clipPath id ="clip35" >
<rect x="0" y="0" height="866" width="1357" transform="matrix(1,0,0,1,0,0)" />
</clipPath>
<g  clip-path="url(#clip35)" 
>
<g fill="none" stroke="#000000" stroke-opacity="1" stroke-width="1" stroke-linecap="square" stroke-linejoin="bevel" transform="matrix(1,0,0,1,0,0)"
font-family="Helvetica Neue" font-size="15" font-weight="700" font-style="normal" 
>
</g>
</g>

<clipPath id ="clip36" >
<rect x="0" y="0" height="865" width="1356" transform="matrix(1,0,0,1,0,0)" />
</clipPath>
<g  clip-path="url(#clip36)" 
>
<g fill="none" stroke="#000000" stroke-opacity="1" stroke-width="1" stroke-linecap="square" stroke-linejoin="bevel" transform="matrix(1,0,0,1,0,0)"
font-family="Helvetica Neue" font-size="15" font-weight="700" font-style="normal" 
>
</g>
</g>

<clipPath id ="clip37" >
<rect x="0" y="0" height="866" width="1357" transform="matrix(1,0,0,1,0,0)" />
</clipPath>
<g  clip-path="url(#clip37)" 
>
<g fill="none" stroke="#000000" stroke-opacity="1" stroke-width="1" stroke-linecap="square" stroke-linejoin="bevel" transform="matrix(1,0,0,1,0,0)"
font-family="Helvetica Neue" font-size="15" font-weight="700" font-style="normal" 
>
</g>
</g>

<g >
<g fill="none" stroke="#000000" stroke-opacity="1" stroke-width="1" stroke-linecap="square" stroke-linejoin="bevel" transform="matrix(1,0,0,1,0,0)"
font-family="Helvetica Neue" font-size="15" font-weight="700" font-style="normal" 
>
</g>
</g>
</g>
</svg>
